<mxfile host="app.diagrams.net" agent="Mozilla/5.0 (Windows NT 10.0; Win64; x64) AppleWebKit/537.36 (KHTML, like Gecko) Chrome/135.0.0.0 Safari/537.36" version="26.2.14">
  <diagram name="Page-1" id="2YBvvXClWsGukQMizWep">
    <mxGraphModel dx="1426" dy="777" grid="1" gridSize="10" guides="1" tooltips="1" connect="1" arrows="1" fold="1" page="1" pageScale="1" pageWidth="850" pageHeight="1100" math="0" shadow="0">
      <root>
        <mxCell id="0" />
        <mxCell id="1" parent="0" />
        <mxCell id="o-yTVa1G6LKakm_pZ3Xy-1" value="Systeme" style="shape=umlLifeline;perimeter=lifelinePerimeter;whiteSpace=wrap;html=1;container=0;dropTarget=0;collapsible=0;recursiveResize=0;outlineConnect=0;portConstraint=eastwest;newEdgeStyle={&quot;edgeStyle&quot;:&quot;elbowEdgeStyle&quot;,&quot;elbow&quot;:&quot;vertical&quot;,&quot;curved&quot;:0,&quot;rounded&quot;:0};" vertex="1" parent="1">
          <mxGeometry x="480" y="188" width="100" height="612" as="geometry" />
        </mxCell>
        <mxCell id="o-yTVa1G6LKakm_pZ3Xy-2" value="" style="html=1;points=[];perimeter=orthogonalPerimeter;outlineConnect=0;targetShapes=umlLifeline;portConstraint=eastwest;newEdgeStyle={&quot;edgeStyle&quot;:&quot;elbowEdgeStyle&quot;,&quot;elbow&quot;:&quot;vertical&quot;,&quot;curved&quot;:0,&quot;rounded&quot;:0};" vertex="1" parent="o-yTVa1G6LKakm_pZ3Xy-1">
          <mxGeometry x="45" y="172" width="10" height="40" as="geometry" />
        </mxCell>
        <mxCell id="o-yTVa1G6LKakm_pZ3Xy-3" value="" style="html=1;verticalAlign=bottom;endArrow=block;edgeStyle=elbowEdgeStyle;elbow=vertical;curved=0;rounded=0;" edge="1" parent="1" target="o-yTVa1G6LKakm_pZ3Xy-2">
          <mxGeometry relative="1" as="geometry">
            <mxPoint x="200" y="360" as="sourcePoint" />
            <Array as="points">
              <mxPoint x="435" y="360" />
            </Array>
            <mxPoint x="520" y="360" as="targetPoint" />
          </mxGeometry>
        </mxCell>
        <mxCell id="o-yTVa1G6LKakm_pZ3Xy-4" value="Admin" style="shape=umlActor;verticalLabelPosition=bottom;verticalAlign=top;html=1;outlineConnect=0;" vertex="1" parent="1">
          <mxGeometry x="185" y="168" width="30" height="60" as="geometry" />
        </mxCell>
        <mxCell id="o-yTVa1G6LKakm_pZ3Xy-5" value="" style="endArrow=none;dashed=1;html=1;rounded=0;" edge="1" parent="1">
          <mxGeometry width="50" height="50" relative="1" as="geometry">
            <mxPoint x="200" y="800" as="sourcePoint" />
            <mxPoint x="200" y="248" as="targetPoint" />
          </mxGeometry>
        </mxCell>
        <mxCell id="o-yTVa1G6LKakm_pZ3Xy-6" value="4: Clique sur boutton Ajouter" style="html=1;verticalAlign=bottom;endArrow=block;edgeStyle=elbowEdgeStyle;elbow=vertical;curved=0;rounded=0;" edge="1" parent="1" target="o-yTVa1G6LKakm_pZ3Xy-1">
          <mxGeometry relative="1" as="geometry">
            <mxPoint x="200" y="489" as="sourcePoint" />
            <Array as="points">
              <mxPoint x="315" y="489" />
            </Array>
            <mxPoint x="405" y="489" as="targetPoint" />
          </mxGeometry>
        </mxCell>
        <mxCell id="o-yTVa1G6LKakm_pZ3Xy-7" value="" style="endArrow=classic;html=1;rounded=0;dashed=1;" edge="1" parent="1">
          <mxGeometry width="50" height="50" relative="1" as="geometry">
            <mxPoint x="528" y="400" as="sourcePoint" />
            <mxPoint x="200" y="400" as="targetPoint" />
          </mxGeometry>
        </mxCell>
        <mxCell id="o-yTVa1G6LKakm_pZ3Xy-8" value="2: Afficher Formulaire du modification" style="text;html=1;align=center;verticalAlign=middle;resizable=0;points=[];autosize=1;strokeColor=none;fillColor=none;" vertex="1" parent="1">
          <mxGeometry x="260" y="377" width="220" height="30" as="geometry" />
        </mxCell>
        <mxCell id="o-yTVa1G6LKakm_pZ3Xy-9" value="" style="rounded=0;whiteSpace=wrap;html=1;" vertex="1" parent="1">
          <mxGeometry x="525" y="440" width="10" height="40" as="geometry" />
        </mxCell>
        <mxCell id="o-yTVa1G6LKakm_pZ3Xy-10" value="3 : Entere les données du personnel a ajoutée (code-soc , email)" style="html=1;verticalAlign=bottom;endArrow=block;edgeStyle=elbowEdgeStyle;elbow=vertical;curved=0;rounded=0;" edge="1" parent="1">
          <mxGeometry relative="1" as="geometry">
            <mxPoint x="200" y="440" as="sourcePoint" />
            <Array as="points">
              <mxPoint x="435" y="440" />
            </Array>
            <mxPoint x="525" y="440" as="targetPoint" />
          </mxGeometry>
        </mxCell>
        <mxCell id="o-yTVa1G6LKakm_pZ3Xy-14" value="ref" style="shape=umlFrame;whiteSpace=wrap;html=1;pointerEvents=0;movable=1;resizable=1;rotatable=1;deletable=1;editable=1;locked=0;connectable=1;" vertex="1" parent="1">
          <mxGeometry x="190" y="275" width="700" height="40" as="geometry" />
        </mxCell>
        <mxCell id="o-yTVa1G6LKakm_pZ3Xy-15" value="Admin Authentifié" style="text;html=1;align=center;verticalAlign=middle;resizable=1;points=[];autosize=1;strokeColor=none;fillColor=none;movable=1;rotatable=1;deletable=1;editable=1;locked=0;connectable=1;" vertex="1" parent="1">
          <mxGeometry x="357" y="280" width="120" height="30" as="geometry" />
        </mxCell>
        <mxCell id="o-yTVa1G6LKakm_pZ3Xy-16" value="&lt;font style=&quot;font-size: 10px;&quot;&gt;Ajouter Personnel&lt;/font&gt;" style="shape=umlFrame;whiteSpace=wrap;html=1;pointerEvents=0;" vertex="1" parent="1">
          <mxGeometry x="170" y="120" width="750" height="720" as="geometry" />
        </mxCell>
        <mxCell id="o-yTVa1G6LKakm_pZ3Xy-17" value="Controlleur" style="shape=umlLifeline;perimeter=lifelinePerimeter;whiteSpace=wrap;html=1;container=0;dropTarget=0;collapsible=0;recursiveResize=0;outlineConnect=0;portConstraint=eastwest;newEdgeStyle={&quot;edgeStyle&quot;:&quot;elbowEdgeStyle&quot;,&quot;elbow&quot;:&quot;vertical&quot;,&quot;curved&quot;:0,&quot;rounded&quot;:0};" vertex="1" parent="1">
          <mxGeometry x="640" y="190" width="100" height="610" as="geometry" />
        </mxCell>
        <mxCell id="o-yTVa1G6LKakm_pZ3Xy-18" value="Base de données" style="shape=umlLifeline;perimeter=lifelinePerimeter;whiteSpace=wrap;html=1;container=0;dropTarget=0;collapsible=0;recursiveResize=0;outlineConnect=0;portConstraint=eastwest;newEdgeStyle={&quot;edgeStyle&quot;:&quot;elbowEdgeStyle&quot;,&quot;elbow&quot;:&quot;vertical&quot;,&quot;curved&quot;:0,&quot;rounded&quot;:0};" vertex="1" parent="1">
          <mxGeometry x="800" y="190" width="100" height="610" as="geometry" />
        </mxCell>
        <mxCell id="o-yTVa1G6LKakm_pZ3Xy-27" value="" style="endArrow=classic;html=1;rounded=0;dashed=1;" edge="1" parent="1">
          <mxGeometry width="50" height="50" relative="1" as="geometry">
            <mxPoint x="528.5000000000002" y="686" as="sourcePoint" />
            <mxPoint x="200" y="686" as="targetPoint" />
          </mxGeometry>
        </mxCell>
        <mxCell id="o-yTVa1G6LKakm_pZ3Xy-28" value="9: Personnel ajoutée avec succes" style="text;html=1;align=center;verticalAlign=middle;resizable=0;points=[];autosize=1;strokeColor=none;fillColor=none;" vertex="1" parent="1">
          <mxGeometry x="275" y="660" width="200" height="30" as="geometry" />
        </mxCell>
        <mxCell id="o-yTVa1G6LKakm_pZ3Xy-29" value="6 :Ajout Personnel" style="html=1;verticalAlign=bottom;endArrow=block;edgeStyle=elbowEdgeStyle;elbow=horizontal;curved=0;rounded=0;" edge="1" parent="1">
          <mxGeometry relative="1" as="geometry">
            <mxPoint x="690" y="604" as="sourcePoint" />
            <Array as="points">
              <mxPoint x="757" y="604" />
            </Array>
            <mxPoint x="847" y="604" as="targetPoint" />
          </mxGeometry>
        </mxCell>
        <mxCell id="o-yTVa1G6LKakm_pZ3Xy-30" value="7: Confirmer l&#39;ajout" style="text;html=1;align=center;verticalAlign=middle;resizable=0;points=[];autosize=1;strokeColor=none;fillColor=none;" vertex="1" parent="1">
          <mxGeometry x="712" y="620" width="120" height="30" as="geometry" />
        </mxCell>
        <mxCell id="o-yTVa1G6LKakm_pZ3Xy-31" value="" style="rounded=0;whiteSpace=wrap;html=1;" vertex="1" parent="1">
          <mxGeometry x="846" y="604" width="10" height="40" as="geometry" />
        </mxCell>
        <mxCell id="o-yTVa1G6LKakm_pZ3Xy-32" value="" style="endArrow=classic;html=1;rounded=0;exitX=0;exitY=1;exitDx=0;exitDy=0;dashed=1;" edge="1" parent="1" source="o-yTVa1G6LKakm_pZ3Xy-31">
          <mxGeometry width="50" height="50" relative="1" as="geometry">
            <mxPoint x="660" y="644" as="sourcePoint" />
            <mxPoint x="689.590909090909" y="644" as="targetPoint" />
          </mxGeometry>
        </mxCell>
        <mxCell id="o-yTVa1G6LKakm_pZ3Xy-33" value="5: Confirmer Ajout" style="html=1;verticalAlign=bottom;endArrow=block;edgeStyle=elbowEdgeStyle;elbow=vertical;curved=0;rounded=0;" edge="1" parent="1">
          <mxGeometry relative="1" as="geometry">
            <mxPoint x="530" y="561" as="sourcePoint" />
            <Array as="points">
              <mxPoint x="597" y="561" />
            </Array>
            <mxPoint x="687" y="561" as="targetPoint" />
          </mxGeometry>
        </mxCell>
        <mxCell id="o-yTVa1G6LKakm_pZ3Xy-34" value="" style="rounded=0;whiteSpace=wrap;html=1;" vertex="1" parent="1">
          <mxGeometry x="686" y="561" width="10" height="40" as="geometry" />
        </mxCell>
        <mxCell id="o-yTVa1G6LKakm_pZ3Xy-35" value="8: message de confirmation" style="text;html=1;align=center;verticalAlign=middle;resizable=0;points=[];autosize=1;strokeColor=none;fillColor=none;" vertex="1" parent="1">
          <mxGeometry x="528" y="644" width="170" height="30" as="geometry" />
        </mxCell>
        <mxCell id="o-yTVa1G6LKakm_pZ3Xy-36" value="" style="endArrow=classic;html=1;rounded=0;exitX=0;exitY=1;exitDx=0;exitDy=0;dashed=1;" edge="1" parent="1">
          <mxGeometry width="50" height="50" relative="1" as="geometry">
            <mxPoint x="688" y="668" as="sourcePoint" />
            <mxPoint x="531.590909090909" y="668" as="targetPoint" />
          </mxGeometry>
        </mxCell>
        <mxCell id="o-yTVa1G6LKakm_pZ3Xy-40" value="1 : Consulter espace ajouter personnel" style="text;html=1;align=center;verticalAlign=middle;resizable=0;points=[];autosize=1;strokeColor=none;fillColor=none;" vertex="1" parent="1">
          <mxGeometry x="242" y="335" width="230" height="30" as="geometry" />
        </mxCell>
      </root>
    </mxGraphModel>
  </diagram>
</mxfile>
